HIERARCHY
ROOT Pelvis
{
	OFFSET 0.000000 0.000000 0.000000
	CHANNELS 6 Xposition Yposition Zposition Xrotation Yrotation Zrotation
	JOINT LeftUpLeg_virtual
	{
		OFFSET 0.000000 0.000000 0.000000
		CHANNELS 3 Xrotation Yrotation Zrotation
		JOINT LeftUpLeg
		{
			OFFSET 18.735201 -5.666702 -4.541200
			CHANNELS 3 Xrotation Yrotation Zrotation
			JOINT LeftLeg
			{
				OFFSET -0.021200 -31.938179 0.493100
				CHANNELS 3 Xrotation Yrotation Zrotation
				JOINT LeftFoot
				{
					OFFSET 0.021200 -31.938179 -4.336299
					CHANNELS 3 Xrotation Yrotation Zrotation
					JOINT LeftToeBase
					{
						OFFSET 0.943001 -26.722000 15.023500
						CHANNELS 3 Xrotation Yrotation Zrotation
						End Site
						{
							OFFSET 0 0 0
						}
					}
				}
			}
		}
	}
	JOINT RightUpLeg_virtual
	{
		OFFSET 0.000000 0.000000 0.000000
		CHANNELS 3 Xrotation Yrotation Zrotation
		JOINT RightUpLeg
		{
			OFFSET -18.735201 -5.666702 -4.541200
			CHANNELS 3 Xrotation Yrotation Zrotation
			JOINT RightLeg
			{
				OFFSET 0.018946 -31.938133 0.493100
				CHANNELS 3 Xrotation Yrotation Zrotation
				JOINT RightFoot
				{
					OFFSET -0.018946 -31.938126 -4.336299
					CHANNELS 3 Xrotation Yrotation Zrotation
					JOINT RightToeBase
					{
						OFFSET -0.943001 -26.722004 15.023500
						CHANNELS 3 Xrotation Yrotation Zrotation
						End Site
						{
							OFFSET 0 0 0
						}
					}
				}
			}
		}
	}
	JOINT Hips_virtual
	{
		OFFSET 0.000000 0.000000 0.000000
		CHANNELS 3 Xrotation Yrotation Zrotation
		JOINT Hips
		{
			OFFSET -0.000000 -0.000000 -0.000000
			CHANNELS 3 Xrotation Yrotation Zrotation
			JOINT Spine
			{
				OFFSET 0.000000 10.199997 -0.299500
				CHANNELS 3 Xrotation Yrotation Zrotation
				JOINT Spine1
				{
					OFFSET 0.000000 11.900002 -1.516600
					CHANNELS 3 Xrotation Yrotation Zrotation
					JOINT Spine2
					{
						OFFSET 0.000000 13.600006 -2.842500
						CHANNELS 3 Xrotation Yrotation Zrotation
						JOINT Neck_virtual
						{
							OFFSET 0.000000 0.000000 0.000000
							CHANNELS 3 Xrotation Yrotation Zrotation
							JOINT Neck
							{
								OFFSET 0.000000 9.624100 -2.890100
								CHANNELS 3 Xrotation Yrotation Zrotation
								JOINT Head
								{
									OFFSET 0.000000 14.068802 -1.351900
									CHANNELS 3 Xrotation Yrotation Zrotation
									End Site
									{
										OFFSET 0 0 0
									}
								}
							}
						}
						JOINT LeftShoulder_virtual
						{
							OFFSET 0.000000 0.000000 0.000000
							CHANNELS 3 Xrotation Yrotation Zrotation
							JOINT LeftShoulder
							{
								OFFSET 15.263000 10.923401 -0.547700
								CHANNELS 3 Xrotation Yrotation Zrotation
								JOINT LeftArm
								{
									OFFSET 25.438599 -2.830597 -13.032500
									CHANNELS 3 Xrotation Yrotation Zrotation
									JOINT LeftForeArm
									{
										OFFSET 29.960503 0.000000 0.000000
										CHANNELS 3 Xrotation Yrotation Zrotation
										JOINT LeftHand
										{
											OFFSET 27.849251 0.000000 0.000000
											CHANNELS 3 Xrotation Yrotation Zrotation
											End Site
											{
												OFFSET 0 0 0
											}
										}
									}
								}
							}
						}
						JOINT RightShoulder_virtual
						{
							OFFSET 0.000000 0.000000 0.000000
							CHANNELS 3 Xrotation Yrotation Zrotation
							JOINT RightShoulder
							{
								OFFSET -15.263000 10.923401 -0.547700
								CHANNELS 3 Xrotation Yrotation Zrotation
								JOINT RightArm
								{
									OFFSET -25.438599 -2.830597 -13.032500
									CHANNELS 3 Xrotation Yrotation Zrotation
									JOINT RightForeArm
									{
										OFFSET -29.960503 0.000000 0.000000
										CHANNELS 3 Xrotation Yrotation Zrotation
										JOINT RightHand
										{
											OFFSET -27.849251 0.000000 0.000000
											CHANNELS 3 Xrotation Yrotation Zrotation
											End Site
											{
												OFFSET 0 0 0
											}
										}
									}
								}
							}
						}
					}
				}
			}
		}
	}
}
MOTION
Frames: 12
Frame Time: 0.03333333
1.042334 93.522034 3.360458 0.000000 0.000000 0.000000 4.419692 -5.775421 -0.619473 -20.000546 22.726753 14.404451 27.564309 3.987333 1.426093 -6.683838 -0.868912 -11.998071 0.000000 0.000000 0.000000 3.096616 -3.816194 -1.695534 -15.182438 -6.143263 2.259210 19.898460 -0.497040 -1.472311 -2.260926 -1.096645 -2.236858 0.000000 0.000000 0.000000 1.955412 -3.638729 -1.732104 -0.424464 1.203257 -0.713711 2.222426 -2.562749 -4.030165 0.989487 1.199840 2.801165 0.000000 0.000000 0.000000 1.112703 1.182533 2.382474 -0.506571 -0.217631 0.342175 0.000000 0.000000 0.000000 0.061538 1.573509 2.817806 2.504039 -7.359926 0.609310 2.779803 -28.909199 -58.655254 -2.113596 -12.072169 -3.196164 0.000000 0.000000 0.000000 1.273503 0.835364 1.978180 0.311355 7.573473 -1.896887 -0.883179 3.589963 73.602118 -2.128320 18.865524 2.116098 0.000000 0.000000 0.000000 
1.063557 93.123856 2.922718 0.000000 0.000000 0.000000 4.518884 -6.409847 -0.823882 -20.735875 23.315341 15.380637 27.626648 3.469628 1.660720 -6.479524 -0.394685 -12.997737 0.000000 0.000000 0.000000 3.179740 -4.763127 -1.742198 -15.636026 -5.745041 2.504287 20.929600 -0.189808 -1.114855 -7.277405 -0.269351 -2.154297 0.000000 0.000000 0.000000 2.295445 -4.561135 -2.049512 -0.505586 1.334536 -0.312059 2.887787 -2.904221 -4.139265 1.275854 0.903470 2.780058 0.000000 0.000000 0.000000 1.350248 0.929468 2.469112 -0.410399 -0.066048 0.216999 0.000000 0.000000 0.000000 0.593943 1.212667 2.935902 2.883318 -7.784973 0.921111 5.365807 -29.537986 -57.561057 -2.181805 -14.728702 -3.925370 0.000000 0.000000 0.000000 1.506975 0.626714 2.110141 0.594147 8.100280 -2.430262 -2.232311 4.685962 72.686955 -1.961868 19.026993 1.935205 0.000000 0.000000 0.000000 
0.936965 92.341766 1.817997 0.000000 0.000000 0.000000 3.970785 -7.837894 -2.031481 -23.333263 25.529724 18.329127 30.067039 3.435210 1.998501 -7.192991 1.049772 -12.926036 0.000000 0.000000 0.000000 2.916692 -6.588829 -2.932440 -17.575725 -5.879673 2.173121 23.806548 1.552934 0.579616 -9.998638 2.648611 2.042322 0.000000 0.000000 0.000000 2.466288 -6.813924 -3.168610 -0.647846 1.091864 0.155733 4.204663 -3.540091 -3.809335 1.830022 0.311837 2.572810 0.000000 0.000000 0.000000 1.835840 0.291925 2.342307 -0.449602 0.049929 0.117140 0.000000 0.000000 0.000000 1.501122 0.526975 2.805847 3.847557 -7.198501 2.014451 13.113784 -30.177968 -54.917805 -2.480416 -23.744558 -5.441998 0.000000 0.000000 0.000000 2.024240 0.031882 1.990880 1.251506 8.859409 -3.452814 -3.683661 7.153148 71.834636 -1.627826 20.416612 1.840784 0.000000 0.000000 0.000000 
0.785784 91.480125 0.339169 0.000000 0.000000 0.000000 2.770739 -10.502096 -3.841585 -27.218546 28.823675 22.670366 34.234571 3.894726 2.194212 -9.134888 3.185877 -12.057968 0.000000 0.000000 0.000000 2.129438 -9.527385 -4.818214 -20.632565 -5.988994 1.344702 27.803958 4.103611 2.342345 -9.013569 6.433652 7.716842 0.000000 0.000000 0.000000 2.321567 -10.264838 -4.627566 -0.585750 1.100697 0.479340 5.795255 -4.256698 -3.125579 2.516984 -0.417163 2.194725 0.000000 0.000000 0.000000 2.481460 -0.528532 1.997896 -0.562965 0.106861 0.038150 0.000000 0.000000 0.000000 2.472558 -0.298406 2.431238 5.255686 -5.498380 3.696679 24.313711 -30.174539 -52.394699 -3.698022 -39.550467 -8.206528 0.000000 0.000000 0.000000 2.629755 -0.765224 1.645108 2.084226 9.593206 -4.365858 -4.724876 9.722097 71.276139 -1.164961 23.365177 1.802846 0.000000 0.000000 0.000000 
0.581230 90.838669 -1.155293 0.000000 0.000000 0.000000 1.142974 -14.620633 -5.721278 -31.332892 32.491230 27.548040 39.138736 4.663590 2.065951 -12.042271 5.700786 -10.534652 0.000000 0.000000 0.000000 0.935444 -13.821828 -6.759501 -23.565256 -5.849253 0.212727 31.365345 5.916804 3.235637 -7.474265 9.053931 10.845335 0.000000 0.000000 0.000000 1.769102 -14.686886 -5.992084 -0.507360 1.109548 0.278865 7.379550 -4.775515 -2.277275 3.153584 -1.104102 1.695330 0.000000 0.000000 0.000000 3.160283 -1.326333 1.511911 -0.687979 0.080609 -0.035002 0.000000 0.000000 0.000000 3.248435 -1.050291 1.886110 6.867088 -2.711261 5.522645 36.641390 -29.767105 -51.190786 -8.426614 -60.626822 -14.570038 0.000000 0.000000 0.000000 3.134688 -1.505012 1.156991 2.884171 10.306181 -4.692536 -5.390648 11.330032 70.747202 -0.655028 28.894166 1.759788 0.000000 0.000000 0.000000 
0.387074 90.496964 -2.316822 0.000000 0.000000 0.000000 -0.516841 -19.883328 -7.191879 -34.296917 36.425942 31.796747 43.394664 5.440136 1.644567 -15.933855 8.225124 -8.729771 0.000000 0.000000 0.000000 -0.533398 -19.303105 -8.118418 -25.260521 -5.501921 -1.376517 34.067689 6.024249 3.058907 -8.028399 8.941801 10.111485 0.000000 0.000000 0.000000 0.732688 -19.871513 -6.956130 -0.448317 0.764375 0.054025 8.571030 -4.915778 -1.464729 3.613589 -1.568239 1.143123 0.000000 0.000000 0.000000 3.719380 -1.884621 0.984110 -0.788458 -0.012322 -0.130279 0.000000 0.000000 0.000000 3.742700 -1.580040 1.259576 8.473004 0.966669 7.403218 48.031594 -29.559826 -51.661649 -41.422816 -80.814955 -48.893298 0.000000 0.000000 0.000000 3.485693 -2.018057 0.622756 3.498144 10.912300 -4.209914 -5.086956 11.246181 69.754605 -0.116733 37.648214 1.756832 0.000000 0.000000 0.000000 
0.196004 90.442314 -2.912361 0.000000 0.000000 0.000000 -1.772292 -25.819008 -7.935707 -34.929748 40.086237 34.291593 45.560391 5.801493 1.301465 -20.604575 10.051449 -7.462203 0.000000 0.000000 0.000000 -1.957905 -25.276163 -8.617626 -25.475677 -5.539150 -3.826551 35.981382 4.801749 2.269730 -9.505114 6.853599 7.574642 0.000000 0.000000 0.000000 -0.583860 -25.397099 -7.327603 -0.233228 0.584715 -0.165837 9.304546 -4.629413 -0.796112 3.858758 -1.790680 0.646311 0.000000 0.000000 0.000000 3.991835 -2.117055 0.497696 -0.870451 -0.134122 -0.255777 0.000000 0.000000 0.000000 3.911883 -1.834423 0.669285 9.882832 5.142144 9.195555 57.155839 -29.602894 -53.669871 -145.482975 -75.777834 -153.868630 0.000000 0.000000 0.000000 3.663579 -2.222634 0.133248 3.874931 11.448850 -3.053213 -3.341552 9.739279 67.906861 0.352153 48.923388 1.860620 0.000000 0.000000 0.000000 
-0.021253 90.577446 -3.083447 0.000000 0.000000 0.000000 -2.534130 -31.613906 -7.864233 -33.831003 42.921073 35.310500 45.661471 5.603510 1.209427 -23.819204 11.158099 -6.902640 0.000000 0.000000 0.000000 -2.931194 -30.667788 -8.269792 -24.879379 -6.631785 -7.500964 37.798940 3.073282 1.383104 -9.887811 4.035428 5.169795 0.000000 0.000000 0.000000 -1.944356 -30.596451 -7.198908 0.028907 0.372613 -0.362794 9.641488 -3.949633 -0.401939 3.857306 -1.802206 0.290739 0.000000 0.000000 0.000000 3.936624 -2.082774 0.120538 -0.965357 -0.250974 -0.426257 0.000000 0.000000 0.000000 3.879044 -1.830414 0.193939 11.006793 9.181596 10.375098 63.181948 -29.598799 -56.277248 -157.747577 -64.388904 -166.417709 0.000000 0.000000 0.000000 3.730459 -2.139990 -0.225978 4.120753 11.789911 -1.761710 -0.018721 7.714158 65.268400 0.659382 60.506576 2.059988 0.000000 0.000000 0.000000 
-0.196563 90.554810 -3.156662 0.000000 0.000000 0.000000 -2.926415 -36.636110 -7.238451 -32.869353 44.376244 36.160575 45.121008 5.200782 1.200956 -23.382022 11.881454 -6.640175 0.000000 0.000000 0.000000 -3.487645 -34.951478 -7.402837 -24.361135 -9.299466 -12.535382 39.944681 1.562846 0.876813 -8.512766 1.215941 3.731366 0.000000 0.000000 0.000000 -3.154346 -35.193171 -6.690569 0.266726 0.008886 -0.279268 9.634614 -3.028012 -0.318609 3.623440 -1.645289 0.072111 0.000000 0.000000 0.000000 3.633918 -1.846438 -0.132896 -1.033327 -0.333830 -0.606875 0.000000 0.000000 0.000000 3.698906 -1.637187 -0.161016 11.848631 12.521630 10.569040 65.681216 -29.333634 -58.585900 -159.329530 -59.035757 -167.518791 0.000000 0.000000 0.000000 3.744794 -1.872450 -0.472705 4.257006 11.717094 -0.750303 4.174054 6.337201 62.401489 0.978867 69.082698 2.125488 0.000000 0.000000 0.000000 
-0.428283 90.177719 -3.479340 0.000000 0.000000 0.000000 -3.266685 -40.686908 -6.396386 -33.757206 43.650854 37.960959 45.693689 4.804276 1.198663 -18.319909 12.233454 -6.420138 0.000000 0.000000 0.000000 -3.861252 -38.350734 -6.342268 -24.003848 -13.259058 -18.091440 42.358620 0.602539 0.898639 -6.629467 -1.394985 3.226893 0.000000 0.000000 0.000000 -4.023743 -39.267352 -5.929732 0.500379 -0.451733 -0.370953 9.508469 -2.102071 -0.534794 3.259336 -1.416772 -0.070994 0.000000 0.000000 0.000000 3.205728 -1.520853 -0.326878 -1.037507 -0.395180 -0.736212 0.000000 0.000000 0.000000 3.318758 -1.362263 -0.463764 12.520096 14.632765 9.367080 64.562083 -28.284011 -59.980782 -157.686446 -59.478394 -164.672951 0.000000 0.000000 0.000000 3.691095 -1.512298 -0.687244 4.266573 11.196520 -0.334729 7.963780 6.776847 59.563826 1.480148 72.467330 1.752089 0.000000 0.000000 0.000000 
-0.625534 89.421837 -4.196751 0.000000 0.000000 0.000000 -3.871624 -44.293958 -5.636860 -37.050542 40.152029 40.737451 48.876082 4.428021 1.228761 -8.818471 12.369929 -5.971663 0.000000 0.000000 0.000000 -4.151215 -41.657447 -5.338370 -23.794516 -17.611095 -23.102196 44.256078 0.151647 1.357220 -7.070459 -3.801908 3.304686 0.000000 0.000000 0.000000 -4.533708 -43.130985 -5.111252 0.492082 -0.618897 -0.590255 9.393360 -1.369158 -1.120010 2.835335 -1.154479 -0.258454 0.000000 0.000000 0.000000 2.763695 -1.181148 -0.552566 -0.940378 -0.437284 -0.765988 0.000000 0.000000 0.000000 2.794800 -1.062911 -0.800609 12.928412 15.404945 6.984455 59.720101 -25.829994 -60.183167 -151.898421 -64.747434 -157.000900 0.000000 0.000000 0.000000 3.537067 -1.173264 -0.969239 4.059555 10.124029 -0.493281 10.892505 9.238536 56.655374 2.097103 70.455894 1.037594 0.000000 0.000000 0.000000 
-0.806497 88.415581 -5.211876 0.000000 0.000000 0.000000 -4.673524 -48.047440 -5.070499 -41.580860 34.272919 43.311189 54.506979 3.996527 1.389463 1.800920 12.246813 -5.522932 0.000000 0.000000 0.000000 -4.492263 -45.556153 -4.645765 -24.109118 -21.359142 -27.081736 45.103079 0.428086 1.981822 -10.617917 -5.558548 4.370239 0.000000 0.000000 0.000000 -4.579863 -46.977580 -4.228301 0.263531 -0.357641 -0.954849 9.266814 -0.825676 -2.056278 2.341626 -0.843693 -0.577342 0.000000 0.000000 0.000000 2.384173 -0.825115 -0.893975 -0.741058 -0.468853 -0.687804 0.000000 0.000000 0.000000 2.186441 -0.678313 -1.190772 12.928238 15.196553 3.824980 51.355093 -21.564070 -59.320172 -135.250764 -72.818573 -137.938867 0.000000 0.000000 0.000000 3.270259 -0.862546 -1.407234 3.603920 8.551917 -0.836539 13.144643 12.879957 53.744891 2.250445 64.749401 0.605199 0.000000 0.000000 0.000000 
